<svg width="11" height="9" viewBox="0 0 11 9" fill="none" xmlns="http://www.w3.org/2000/svg">
<path d="M8.71256 0.712499C8.70365 0.721129 8.6953 0.730314 8.68756 0.74L4.34631 6.27125L1.73006 3.65375C1.55234 3.48815 1.31728 3.398 1.0744 3.40228C0.831527 3.40657 0.599796 3.50496 0.42803 3.67672C0.256263 3.84849 0.157874 4.08022 0.153588 4.3231C0.149303 4.56597 0.239457 4.80103 0.405057 4.97875L3.71256 8.2875C3.80166 8.37644 3.90776 8.44652 4.02454 8.49357C4.14131 8.54061 4.26637 8.56365 4.39224 8.56132C4.51811 8.55899 4.64223 8.53133 4.75718 8.47999C4.87213 8.42865 4.97556 8.35468 5.06131 8.2625L10.0513 2.025C10.2212 1.84666 10.3141 1.60862 10.3099 1.36233C10.3057 1.11605 10.2048 0.88131 10.0289 0.708868C9.85298 0.536425 9.61629 0.440135 9.36997 0.440815C9.12365 0.441494 8.88749 0.539089 8.71256 0.712499Z" fill="#117A7A"/>
</svg>
